<svg width="353" height="65" viewBox="0 0 353 65" fill="none" xmlns="http://www.w3.org/2000/svg">
<path fill-rule="evenodd" clip-rule="evenodd" d="M0 0H11.4784V40.5216H34.8179V51.0416H0V0ZM51.27 0H40.9395V9.74077H51.27V0ZM40.9395 12.8577H51.27V51.0415H40.9395V12.8577ZM97.1836 31.9498C97.1836 42.8594 88.3834 51.8209 76.905 51.8209C65.4266 51.8209 56.6265 43.249 56.6265 31.9498C56.6265 20.6505 65.4266 12.0786 76.905 12.0786C88.7661 12.0786 97.1836 21.0401 97.1836 31.9498ZM66.9571 31.9498C66.9571 38.1838 71.1658 42.4698 76.905 42.4698C82.6442 42.4698 87.2356 37.7942 87.2356 31.9498C87.2356 25.7157 83.0268 21.4297 77.2876 21.4297C71.5484 21.4297 66.9571 25.7157 66.9571 31.9498ZM123.967 12.0786C118.611 12.0786 114.784 14.4164 112.871 16.7542V12.8579H102.923V51.0416H113.254V30.0016C113.254 24.5468 116.697 21.4297 121.671 21.4297C125.88 21.4297 128.559 24.5468 128.559 29.2223V51.0416H138.506V27.6638C138.506 18.3127 132.767 12.0786 123.967 12.0786ZM161.463 38.9631C161.463 41.3009 162.994 44.0283 168.35 44.0283C172.177 44.0283 174.09 42.0801 174.09 40.5216C174.09 38.1838 171.411 37.4046 167.585 37.015C167.132 36.9335 166.666 36.854 166.191 36.7729C159.846 35.6902 151.898 34.334 151.898 24.5468C151.898 17.5334 158.02 12.0786 167.585 12.0786C177.151 12.0786 183.272 17.1438 183.655 24.9364H173.324C172.942 22.209 172.177 20.2608 167.585 20.2608C164.524 20.2608 162.229 21.0401 162.229 23.7675C162.229 26.4949 166.055 27.2742 170.646 28.0535C177.151 29.2223 184.803 30.7809 184.803 39.3527C184.803 48.3142 177.151 52.2105 167.968 52.2105C157.637 52.2105 151.515 46.7557 151.133 39.3527H161.463V38.9631ZM227.655 0H206.994V51.4312H229.568C241.429 51.4312 247.168 44.8075 247.168 36.6252C247.168 30.7808 244.107 26.4949 237.603 24.5467C241.429 22.2089 243.725 18.7023 243.725 14.0267C243.725 6.23408 238.751 0 227.655 0ZM218.089 20.2608V9.74076H226.507C230.333 9.74076 232.246 11.6889 232.246 14.806C232.246 17.923 230.333 20.2608 226.507 20.2608H218.089ZM218.089 40.9112V30.0015V29.6119H228.803C233.011 29.6119 235.69 31.9497 235.69 35.4564C235.69 38.5734 233.011 40.9112 228.803 40.9112H218.089ZM273.569 49.8725C270.126 60.0029 265.535 64.2889 256.352 64.2889H252.526V54.9377H255.587C259.03 54.9377 261.326 52.9896 262.474 49.8725L248.317 12.468H259.795L267.448 36.2355L275.1 12.468H285.813L273.569 49.8725ZM310.682 22.2088V12.8577H301.5V3.11694H291.169V12.8577V22.2088V37.794C291.169 46.7555 295.76 51.0415 305.708 51.0415H310.682V42.08H306.474C303.03 42.08 301.5 40.9111 301.5 37.4044V22.2088H310.682ZM351.24 42.8594C347.414 48.7039 341.675 51.8209 333.257 51.8209C321.396 51.8209 313.361 43.249 313.361 31.9498C313.361 21.0401 321.396 12.0786 333.257 12.0786C345.118 12.0786 352.388 20.6505 352.388 31.5601V35.0668H323.692C324.84 39.7424 328.283 42.8594 333.64 42.8594C338.231 42.8594 341.292 40.9113 343.588 37.7942L351.24 42.8594ZM342.44 27.6638C341.292 22.9883 337.849 20.6505 333.64 20.6505C328.666 20.6505 325.605 22.9883 324.075 27.6638H342.44ZM144.628 10.52V0H134.298L144.628 10.52Z" fill="url(#paint0_linear)"/>
<defs>
<linearGradient id="paint0_linear" x1="-6.3035e-06" y1="76.1315" x2="461.901" y2="-41.0859" gradientUnits="userSpaceOnUse">
<stop stop-color="#8B53DA"/>
<stop offset="1" stop-color="#FF003F"/>
</linearGradient>
</defs>
</svg>
